/vscmnt/brussel_pixiu_data/_data_brussel/112/vsc11236/PredSimResults/SUBJ07mtu3D/weighted-trackIG/worker_02.mot
version=1
nRows=7
nColumns=50
inDegrees=yes
endheader
                time	         pelvis_tilt	         pelvis_list	     pelvis_rotation	           pelvis_tx	           pelvis_ty	           pelvis_tz	       hip_flexion_r	     hip_adduction_r	      hip_rotation_r	        knee_angle_r	       ankle_angle_r	         mtp_angle_r	       hip_flexion_l	     hip_adduction_l	      hip_rotation_l	        knee_angle_l	       ankle_angle_l	         mtp_angle_l	    lumbar_extension	      lumbar_bending	     lumbar_rotation	 ercspn_r/activation	 intobl_r/activation	 extobl_r/activation	    abd_r/activation	    add_r/activation	hamstrings_r/activation	bifemsh_r/activation	glut_max_r/activation	iliopsoas_r/activation	rect_fem_r/activation	  vasti_r/activation	gastroc_r/activation	 soleus_r/activation	tib_ant_r/activation	 ercspn_l/activation	 intobl_l/activation	 extobl_l/activation	    abd_l/activation	    add_l/activation	hamstrings_l/activation	bifemsh_l/activation	glut_max_l/activation	iliopsoas_l/activation	rect_fem_l/activation	  vasti_l/activation	gastroc_l/activation	 soleus_l/activation	tib_ant_l/activation	
          0.00000000	         -6.48889716	         -3.81667329	          8.96340754	          0.00000000	          0.84384435	         -0.01184564	         31.56980538	         -0.21748386	         -6.80392409	         -3.84723231	          7.65031613	          0.25223334	        -13.30262899	         -4.53786279	          5.02358258	         -7.45822700	          7.99855387	         28.62287424	         -6.87762314	          2.23734769	         -3.91415320	          0.10292921	          0.18242329	          0.02716505	          0.01624129	          0.13421972	          0.08147179	          0.21385066	          0.01000002	          0.08724520	          0.01000003	          0.01000000	          0.01759266	          0.01000000	          0.27385912	          0.03670506	          0.00999999	          0.01000000	          0.03476863	          0.05197252	          0.03039028	          0.14618973	          0.02726917	          0.40686718	          0.01000003	          0.01055823	          0.26757532	          0.26409409	          0.02102241	
          0.01089923	         -6.55012046	         -3.68775494	          8.86536559	          0.01647735	          0.84197827	         -0.01161355	         31.67008251	         -0.03213784	         -5.95624602	         -5.72024091	          7.31280105	          0.24746673	        -13.31116288	         -4.40124142	          4.51526874	         -9.45562145	          7.24961275	         30.38922195	         -6.69023268	          2.68453674	         -3.98587222	          0.08710606	          0.15471313	          0.02298901	          0.01374454	          0.19611691	          0.07071897	          0.18097573	          0.08809734	          0.07383312	          0.01000003	          0.01000000	          0.02303841	          0.01866856	          0.28030916	          0.09896487	          0.01000000	          0.01000005	          0.02942370	          0.10185838	          0.02571844	          0.12371620	          0.02307712	          0.41887443	          0.01000003	          0.01000006	          0.22644137	          0.24486399	          0.01779066	
          0.02179847	         -6.59469228	         -3.56033338	          8.71001255	          0.03321613	          0.84026926	         -0.01135200	         31.57250663	          0.13358057	         -5.11516978	         -7.45897560	          6.93457549	          0.23757826	        -13.12556864	         -4.24729014	          3.94819184	        -11.87085432	          6.39413674	         32.05328258	         -6.48932274	          3.15301176	         -4.02825018	          0.07879288	          0.13092932	          0.01945495	          0.08451268	          0.19556189	          0.06973818	          0.15315462	          0.10843646	          0.06248287	          0.01000000	          0.00999999	          0.01949675	          0.01579867	          0.33162980	          0.13050977	          0.00999999	          0.01000000	          0.02490044	          0.09138498	          0.02176480	          0.10469750	          0.01952951	          0.40006047	          0.01000001	          0.01000000	          0.19163087	          0.21090703	          0.01505573	
          0.03269770	         -6.62501205	         -3.43049555	          8.49864081	          0.04999599	          0.83889839	         -0.01099608	         31.31474217	          0.31827020	         -4.36307287	         -8.90964578	          6.44949327	          0.22105112	        -12.67518470	         -4.08088004	          3.33672326	        -14.78112257	          5.39400578	         33.47438228	         -6.29779452	          3.62336379	         -4.04298433	          0.09035545	          0.11080175	          0.01646417	          0.13188629	          0.20538213	          0.05998619	          0.12961040	          0.15193457	          0.05287747	          0.01000001	          0.01000000	          0.01649955	          0.01336997	          0.35528602	          0.16264921	          0.00999999	          0.01000000	          0.02107253	          0.10036399	          0.01841895	          0.08860251	          0.01652727	          0.37498493	          0.01000000	          0.01000000	          0.16217174	          0.17848461	          0.01274124	
          0.04359694	         -6.64155642	         -3.30498428	          8.23620350	          0.06661065	          0.83801675	         -0.01055275	         30.99212297	          0.52461532	         -3.70809135	        -10.26513246	          6.06469312	          0.20592131	        -11.91643270	         -3.91669199	          2.68098097	        -18.21649452	          4.25231692	         34.39367001	         -6.13345372	          4.10119974	         -4.02894315	          0.08639206	          0.09376836	          0.01393316	          0.15777575	          0.19974809	          0.05076465	          0.10968559	          0.16796657	          0.04474870	          0.01000001	          0.03454892	          0.01396310	          0.01131463	          0.37532566	          0.19219007	          0.00999999	          0.01000000	          0.01783308	          0.10336329	          0.01558744	          0.07498179	          0.01398656	          0.32303694	          0.01000000	          0.00999999	          0.13724132	          0.15104643	          0.01078255	
          0.05449617	         -6.64525185	         -3.18385846	          7.92439095	          0.08293996	          0.83773913	         -0.01003821	         30.63614752	          0.74217382	         -3.15092353	        -11.56621387	          5.80888357	          0.18985801	        -10.84359465	         -3.76671451	          1.97797876	        -22.14143172	          2.93532335	         34.58287048	         -6.00470842	          4.58384167	         -3.98510391	          0.07311116	          0.07935349	          0.01179124	          0.16985701	          0.17801098	          0.05074304	          0.09282379	          0.16035901	          0.03786955	          0.01000001	          0.11867308	          0.01181658	          0.01000002	          0.38472660	          0.21666043	          0.00999999	          0.01000000	          0.01509163	          0.11900927	          0.01319122	          0.06345498	          0.01183642	          0.27337695	          0.01000000	          0.00999999	          0.11614342	          0.12782629	          0.00999999	
          0.06539541	         -6.63931017	         -3.05705707	          7.56154986	          0.09892606	          0.83817865	         -0.00947886	         30.19507858	          0.95775827	         -2.67729006	        -12.70914484	          5.71191692	          0.17403373	         -9.48213328	         -3.62999356	          1.23937280	        -26.42439255	          1.24779153	         34.06354840	         -5.91422704	          5.05774777	         -3.91051888	          0.06187189	          0.06715460	          0.01000000	          0.17506322	          0.15064562	          0.05073163	          0.07855414	          0.13948571	          0.03204792	          0.01000001	          0.18384672	          0.01000005	          0.01000001	          0.37995594	          0.21810558	          0.00999999	          0.01000000	          0.01277162	          0.13307472	          0.01116336	          0.05552381	          0.01001683	          0.23135112	          0.01000000	          0.00999999	          0.09828886	          0.10817574	          0.00999999	
